<?xml version="1.0" encoding="UTF-8"?>
<svg version="1.1" xmlns="http://www.w3.org/2000/svg" width="816" height="792">
<path d="M0 0 C5.92921298 0.00685868 11.85840064 -0.00372412 17.78760839 -0.01193976 C29.36865317 -0.02520735 40.94963928 -0.02243067 52.53068626 -0.01370184 C61.95156712 -0.00679012 71.37243251 -0.00594154 80.79331517 -0.00927329 C81.46567827 -0.00950245 82.13804138 -0.0097316 82.83077912 -0.0099677 C85.56096992 -0.0109019 88.29116072 -0.01185713 91.02135151 -0.01284699 C116.56789488 -0.02199846 142.11440645 -0.0137443 167.6609449 0.0024437 C190.29576834 0.01667767 212.93054112 0.01540366 235.56536412 0.00106072 C261.06889059 -0.01504649 286.57238902 -0.02134912 312.07591987 -0.01210248 C314.80077957 -0.01114051 317.52563929 -0.01020198 320.25049901 -0.00927329 C320.92129759 -0.00903606 321.59209616 -0.00879883 322.28322197 -0.00855441 C332.35776137 -0.00515981 342.43227949 -0.0091186 352.50681615 -0.01671195 C363.97631436 -0.02516754 375.44575106 -0.02276211 386.91524231 -0.00686972 C392.75549688 0.00095872 398.59564927 0.00419842 404.43590283 -0.00581717 C440.78630989 -0.06284611 477.88929944 0.15032491 512.02190709 14.39217401 C512.72364049 14.68463006 513.42537389 14.97708611 514.14837193 15.27840447 C550.65844794 30.82213528 580.34249888 60.51430818 595.219661 97.3584826 C609.2944367 134.7599421 609.48932261 174.10722898 609.4140811 213.54617095 C609.40717327 218.92597127 609.41782868 224.30574486 609.42602086 229.68553948 C609.43923777 240.1746234 609.43653489 250.66364228 609.42778294 261.15272856 C609.42095874 269.69091291 609.42010992 278.22907925 609.42335439 286.76726556 C609.42381409 287.99065344 609.42427379 289.21404131 609.42474741 290.47450155 C609.42570676 292.96115653 609.4266794 295.44781151 609.42766519 297.93446648 C609.4361838 321.15558116 609.42644071 344.37666009 609.41026409 367.5977689 C609.39686415 387.44624733 609.39919325 407.29467309 609.41302037 427.14315057 C609.42913895 450.29119536 609.43536016 473.43920896 609.42618358 496.58725858 C609.42522811 499.06386653 609.424285 501.54047449 609.42335439 504.01708245 C609.42289156 505.23506184 609.42242873 506.45304122 609.42195188 507.70792907 C609.41938075 516.21835691 609.42369206 524.72876466 609.43079305 533.23918939 C609.43927846 543.63558564 609.4367821 554.0319141 609.42095082 564.42830276 C609.41316152 569.71468459 609.40981293 575.00095414 609.41989827 580.28733468 C609.52986433 643.23219638 609.52986433 643.23219638 602.02190709 672.39217401 C601.72292516 673.59124383 601.72292516 673.59124383 601.41790318 674.81453729 C594.78190683 700.84255995 581.92335097 724.29442433 563.02190709 743.39217401 C562.23557897 744.23908807 561.44925084 745.08600213 560.63909459 745.95858026 C528.20129734 780.16279221 478.31522201 791.23322374 432.83411664 792.45074056 C427.12591484 792.54238325 421.41738364 792.53122703 415.70861363 792.52588677 C413.79275309 792.52775867 411.87689292 792.53006087 409.96103334 792.5327521 C404.73391238 792.53883003 399.50680751 792.53874125 394.27968383 792.53755772 C388.62702401 792.53735269 382.97436922 792.54288232 377.32171178 792.54761529 C366.25954834 792.55590106 355.19739024 792.55866922 344.13522395 792.55922767 C335.13457299 792.55970394 326.13392377 792.56176424 317.13327336 792.56492829 C295.72628191 792.57229956 274.31929217 792.57845369 252.91229939 792.57792974 C252.22865765 792.57791416 251.54501591 792.57789858 250.84065775 792.57788253 C247.37630317 792.57779943 243.91194859 792.57770039 240.44759402 792.57759782 C239.75966156 792.57757787 239.0717291 792.57755793 238.3629502 792.57753738 C236.97178272 792.57749694 235.58061524 792.57745514 234.18944776 792.57741199 C212.57011757 792.57679994 190.9508031 792.58429498 169.3314774 792.59798455 C144.99484868 792.6133887 120.6582329 792.62193548 96.32159853 792.62102133 C83.454205 792.62069046 70.58682919 792.62338888 57.71943974 792.63419938 C46.75915985 792.6433491 35.79890569 792.64544329 24.83862361 792.63868996 C19.25757209 792.63544679 13.67656982 792.63528726 8.09552312 792.64404321 C-27.144229 792.69582391 -61.92724802 792.58555327 -95.97809291 782.39217401 C-97.05655482 782.06974725 -97.05655482 782.06974725 -98.15680385 781.74080682 C-121.80136002 774.4747489 -141.34233647 761.44331973 -158.97809291 744.39217401 C-159.64324916 743.77858026 -160.30840541 743.16498651 -160.99371791 742.53279901 C-180.86155814 723.77904327 -193.39507404 696.44952509 -199.97809291 670.39217401 C-200.17241908 669.64016717 -200.36674525 668.88816033 -200.5669601 668.11336541 C-208.02625855 638.34777046 -207.42787914 606.77341369 -207.35560787 576.30791783 C-207.34659904 571.08358027 -207.35525639 565.85926366 -207.36146998 560.63492608 C-207.37086449 550.45131238 -207.36444141 540.26777051 -207.35220704 530.08416222 C-207.33845005 518.18090529 -207.34023682 506.27766463 -207.34234037 494.37440176 C-207.34551655 473.11208211 -207.33394142 451.84979616 -207.31427455 430.58748651 C-207.29527158 410.03702034 -207.28819002 389.48659364 -207.29376674 368.93611932 C-207.29984779 346.46123466 -207.29960544 323.98636727 -207.2882809 301.51148403 C-207.28707384 299.10737101 -207.28586785 296.703258 -207.28466296 294.29914498 C-207.28405942 293.11681761 -207.28345588 291.93449023 -207.28283406 290.71633475 C-207.27898266 282.45293833 -207.27933763 274.1895484 -207.28124881 265.92615151 C-207.28338827 255.83383633 -207.27801582 245.74155538 -207.26363526 235.64924978 C-207.25647603 230.51705875 -207.25224008 225.38491713 -207.25687861 220.25272202 C-207.30615428 157.99046685 -205.62831704 94.25574471 -159.10309291 47.14217401 C-144.2527724 32.54776979 -126.13302908 21.40855698 -106.97809291 13.39217401 C-105.91074916 12.94358026 -104.84340541 12.49498651 -103.74371791 12.03279901 C-70.72232436 -0.76496596 -34.8003378 -0.05967994 0 0 Z " fill="#F13832" transform="translate(206.97809290885925,-0.39217400550842285)"/>
<path d="M0 0 C0.96316132 -0.00701431 1.92632263 -0.01402863 2.91867065 -0.02125549 C6.00442242 -0.0386397 9.08998233 -0.04510629 12.17578125 -0.046875 C13.75672073 -0.04788712 13.75672073 -0.04788712 15.36959839 -0.04891968 C30.60441841 -0.03340428 45.49555168 0.22172997 60.48828125 3.203125 C61.41205566 3.38536621 62.33583008 3.56760742 63.28759766 3.75537109 C69.73386893 5.06519739 76.11214768 6.58987145 82.48828125 8.203125 C83.6189502 8.47697021 83.6189502 8.47697021 84.77246094 8.75634766 C111.66488386 15.2894329 137.86199538 26.85751111 161.48828125 41.203125 C162.37902344 41.74066406 163.26976562 42.27820313 164.1875 42.83203125 C176.89906723 50.71738312 189.12339464 59.4779484 200.48828125 69.203125 C201.21402344 69.80640625 201.93976563 70.4096875 202.6875 71.03125 C206.00906868 73.84034808 209.02560256 76.71599861 211.86328125 80.015625 C213.07097047 81.41201566 214.27934636 82.80781265 215.48828125 84.203125 C216.16890625 84.99976563 216.84953125 85.79640625 217.55078125 86.6171875 C223.04977087 92.61777415 228.64467975 96.15632425 235.81689453 99.74243164 C266.6124813 115.24830342 291.17372802 141.8522234 308.48828125 171.203125 C308.84132324 171.79254883 309.19436523 172.38197266 309.55810547 172.98925781 C333.62576176 213.61278873 338.25146551 263.43260237 326.72412109 308.7253418 C324.32390652 317.47912195 321.14226038 325.89651117 317.48828125 334.203125 C317.1958252 334.87698242 316.90336914 335.55083984 316.60205078 336.24511719 C307.64538386 356.69988748 295.50439017 374.5931854 279.48828125 390.203125 C278.64265625 391.04875 277.79703125 391.894375 276.92578125 392.765625 C274.11328125 395.578125 271.30078125 398.390625 268.48828125 401.203125 C269.96806288 405.5298778 272.28541649 408.94279256 274.98828125 412.578125 C277.82486154 416.41794916 280.56425276 420.25007354 283.01953125 424.34765625 C287.71702655 432.73775639 287.71702655 432.73775639 295.73828125 437.390625 C297.32098305 437.66512484 298.9042556 437.93637068 300.48828125 438.203125 C309.81205011 443.22361593 314.86921247 452.5825033 320.48828125 461.203125 C321.98429264 463.47673943 323.48295544 465.74820286 324.98828125 468.015625 C325.39780029 468.63268311 325.80731934 469.24974121 326.22924805 469.88549805 C330.08211588 475.65730395 334.0675878 481.3333408 338.05078125 487.015625 C344.71990633 496.54067678 351.12820936 506.21645842 357.46069336 515.96606445 C361.44391406 522.09334889 365.46256497 528.18788061 369.61328125 534.203125 C370.04946777 534.83613525 370.4856543 535.46914551 370.93505859 536.12133789 C372.78117079 538.78686479 374.65125242 541.42510824 376.5703125 544.0390625 C385.0225293 555.60525391 387.1480222 566.01157856 385.48828125 580.203125 C383.06662752 590.96107062 377.13555611 600.02670181 368.30078125 606.640625 C359.25372294 612.11851794 347.85600619 613.37857407 337.48828125 612.203125 C322.46650865 608.38841374 312.72329166 597.44890187 304.78613281 584.79174805 C301.8850041 580.21796891 298.84311631 575.73854299 295.8125 571.25 C294.89183746 569.88635567 294.89183746 569.88635567 293.95257568 568.49516296 C292.02806243 565.64708182 290.10202933 562.80003304 288.17578125 559.953125 C285.63735045 556.19836947 283.09973265 552.44306525 280.5625 548.6875 C279.64378616 547.32788147 279.64378616 547.32788147 278.70651245 545.9407959 C273.60227194 538.38238679 268.53633042 530.79913576 263.48828125 523.203125 C262.40526506 521.57791362 261.32197647 519.95288368 260.23828125 518.328125 C258.81904498 516.1995202 257.40009978 514.07072417 255.98193359 511.94140625 C253.5665192 508.31559145 251.14715053 504.69263385 248.71484375 501.078125 C236.28628215 482.58673848 236.28628215 482.58673848 233.48828125 475.203125 C232.82183594 476.00234375 232.15539062 476.8015625 231.46875 477.625 C226.22442491 483.88457264 220.89590917 490.03465831 215.34130859 496.02124023 C212.76240076 498.80198775 210.25360327 501.62340856 207.80078125 504.515625 C205.02262671 507.71213693 202.04203798 510.45812883 198.80859375 513.1875 C196.5735548 515.12904899 194.44257795 517.15685589 192.30859375 519.20800781 C173.71363605 536.91253533 151.74307033 551.40498025 128.48828125 562.203125 C127.29976563 562.77289062 126.11125 563.34265625 124.88671875 563.9296875 C107.4507718 572.07993038 88.35337181 578.39887473 69.48828125 582.203125 C68.65474121 582.37150879 67.82120117 582.53989258 66.96240234 582.71337891 C-9.06375538 597.6913032 -85.24263478 581.5127244 -149.65722656 538.77978516 C-153.69747495 536.03606498 -157.62865302 533.16421093 -161.51171875 530.203125 C-162.09743652 529.7587207 -162.6831543 529.31431641 -163.28662109 528.85644531 C-170.16077282 523.6160277 -176.81810364 518.2154399 -183.17578125 512.3515625 C-184.69082769 510.95812513 -186.22646481 509.58662582 -187.78515625 508.2421875 C-200.22163761 497.45839469 -211.37610249 485.11371993 -221.21728516 471.93457031 C-222.54604551 470.15720924 -223.89348156 468.3950706 -225.2421875 466.6328125 C-232.35878121 457.23775388 -238.61962941 447.40622611 -244.51171875 437.203125 C-244.90601074 436.52056641 -245.30030273 435.83800781 -245.70654297 435.13476562 C-277.99979978 378.45287009 -287.55540434 308.00024812 -275.51171875 244.203125 C-275.25740822 242.7320648 -275.00459625 241.26074401 -274.75390625 239.7890625 C-274.10201513 236.22988684 -273.34437549 232.72407348 -272.51171875 229.203125 C-272.36186523 228.54957031 -272.21201172 227.89601563 -272.05761719 227.22265625 C-263.27445463 189.43584954 -247.51480312 152.53315615 -224.51171875 121.203125 C-224.09567383 120.6354541 -223.67962891 120.0677832 -223.25097656 119.48291016 C-220.42183529 115.65425863 -217.49847678 111.90980335 -214.51171875 108.203125 C-214.09438477 107.68137695 -213.67705078 107.15962891 -213.24707031 106.62207031 C-201.43185092 91.98050018 -187.86329051 78.35342911 -173.51171875 66.203125 C-172.97063477 65.7393042 -172.42955078 65.2754834 -171.87207031 64.79760742 C-125.17400227 25.15334465 -61.53400044 0.30217682 0 0 Z " fill="#0C1517" transform="translate(371.51171875,79.796875)"/>
<path d="M0 0 C1.03737305 0.23227295 1.03737305 0.23227295 2.09570312 0.46923828 C28.12785491 6.54654776 51.00564378 21.66718534 70 40 C70.56195068 40.53713623 71.12390137 41.07427246 71.70288086 41.62768555 C75.85302399 45.67090433 79.4873537 49.9112002 82.9375 54.5625 C83.45328613 55.25649902 83.96907227 55.95049805 84.50048828 56.66552734 C89.25326739 63.17003234 93.32596835 69.82610073 97 77 C97.51949219 78.00160156 98.03898437 79.00320313 98.57421875 80.03515625 C102.32263111 87.97470683 104.57807588 96.21728737 106.8125 104.6875 C107.11486572 105.82791748 107.41723145 106.96833496 107.72875977 108.14331055 C115.96648903 140.66289584 111.35023202 177.26123724 96 207 C95.3865291 208.23428076 94.7732568 209.46866024 94.16015625 210.703125 C87.83329011 223.21396695 79.63373428 233.82396942 70 244 C69.18015625 244.88429688 68.3603125 245.76859375 67.515625 246.6796875 C41.91272496 273.41881091 4.05032068 289.45544918 -32.89868164 290.29272461 C-59.72364833 290.50166992 -84.64320802 284.10990338 -108 271 C-108.9892749 270.44554199 -108.9892749 270.44554199 -109.99853516 269.87988281 C-143.15329674 250.95948009 -166.98983916 219.40229807 -178 183 C-188.71005114 143.79761412 -183.60300735 101.99321565 -163.5859375 66.65234375 C-158.28730217 57.66972409 -152.05697873 49.65906722 -145 42 C-144.13761719 41.05511719 -143.27523437 40.11023438 -142.38671875 39.13671875 C-106.03873706 1.06557349 -50.29356778 -11.32909777 0 0 Z " fill="#F8F4F1" transform="translate(552,200)"/>
<path d="M0 0 C0.99787033 -0.00175232 1.99574066 -0.00350464 3.02384949 -0.00531006 C6.30392221 -0.00969059 9.58394045 -0.0068033 12.86401367 -0.00341797 C15.15793366 -0.00409226 17.45185357 -0.00506333 19.74577332 -0.00631714 C24.5479704 -0.00778911 29.35014884 -0.00565624 34.15234375 -0.00097656 C40.285173 0.00471073 46.41795839 0.00144486 52.55078602 -0.00454903 C57.2873314 -0.00817641 62.02386652 -0.0070059 66.76041222 -0.00442123 C69.02047417 -0.00375748 71.28053708 -0.00456096 73.54059792 -0.00690079 C76.71068381 -0.00946208 79.88070046 -0.00553768 83.05078125 0 C83.97114166 -0.00202423 84.89150208 -0.00404846 85.8397522 -0.00613403 C92.17847258 0.01420904 98.41662697 0.46471745 104.71948242 1.12939453 C105.20416992 2.27794922 105.68885742 3.42650391 106.18823242 4.60986328 C118.49751794 33.32739226 137.43706792 56.70147474 166.82006836 69.00927734 C188.9813266 77.77070502 211.41392319 80.61366776 234.76318359 75.46459961 C236.03512573 75.18845825 236.03512573 75.18845825 237.33276367 74.90673828 C238.08340088 74.73392334 238.83403809 74.5611084 239.60742188 74.38305664 C243.30777001 73.93863846 245.22594188 74.74189743 248.13745117 77.02783203 C249.05139648 77.84509766 249.9653418 78.66236328 250.90698242 79.50439453 C283.09800149 107.16816072 326.17932077 122.73150285 368.46948242 122.37939453 C369.17213226 122.37529572 369.8747821 122.3711969 370.59872437 122.36697388 C393.54376687 122.21051784 416.47074103 119.45686398 437.59838867 109.77929688 C440.05377788 109.02696652 441.32868556 109.28705879 443.71948242 110.12939453 C442.1322827 115.05256493 439.26508094 118.70530764 436.15698242 122.75439453 C435.61686523 123.46442627 435.07674805 124.17445801 434.52026367 124.90600586 C419.92879304 143.99896247 403.74367719 162.33575496 384.71948242 177.12939453 C383.72561523 177.92861328 382.73174805 178.72783203 381.70776367 179.55126953 C373.46812538 186.12093602 364.77390094 191.75136907 355.71948242 197.12939453 C355.0657666 197.5201416 354.41205078 197.91088867 353.73852539 198.31347656 C337.89934495 207.71441479 321.35532479 214.84128588 303.71948242 220.12939453 C302.96586426 220.35755859 302.21224609 220.58572266 301.43579102 220.82080078 C278.10693499 227.75948751 253.96501899 229.61011177 229.71948242 229.12939453 C228.97746582 229.11682617 228.23544922 229.10425781 227.47094727 229.09130859 C158.14124959 227.61009857 95.61579163 193.31901384 47.92651367 144.59423828 C42.8359801 139.27887187 38.29546642 133.65777405 33.92993164 127.74121094 C32.74154105 126.15876748 31.49834059 124.61796542 30.25463867 123.07861328 C19.02775415 109.1203856 10.2660802 93.33573516 2.71948242 77.12939453 C2.2115918 76.05431641 1.70370117 74.97923828 1.18041992 73.87158203 C-6.23771248 57.40888177 -11.293709 40.13919093 -15.28051758 22.56689453 C-15.43430878 21.8965921 -15.58809998 21.22628967 -15.74655151 20.53567505 C-17.24528111 13.94565945 -18.45231394 7.9158876 -18.28051758 1.12939453 C-12.14535037 0.23051244 -6.1956142 -0.01353725 0 0 Z " fill="#F8F4F1" transform="translate(145.280517578125,405.87060546875)"/>
<path d="M0 0 C1.14796555 0.00031723 1.14796555 0.00031723 2.31912231 0.00064087 C51.6311496 0.13469792 101.91055638 13.65118786 141.9375 43.375 C141.9375 43.705 141.9375 44.035 141.9375 44.375 C141.27556641 44.3843457 140.61363281 44.39369141 139.93164062 44.40332031 C109.21006653 44.94248077 80.83227372 49.91304242 53.06445312 63.34814453 C51.23536189 64.23119753 49.3923337 65.08527806 47.546875 65.93359375 C24.47288687 76.82278868 2.26660057 95.07209552 -13.0625 115.375 C-13.94263146 116.50396619 -14.82284398 117.63286917 -15.703125 118.76171875 C-22.45267046 127.55959834 -27.93048154 136.81548862 -33.09204102 146.62011719 C-35.63250392 151.21404106 -35.63250392 151.21404106 -38.14697266 152.15527344 C-39.42386963 152.44192871 -39.42386963 152.44192871 -40.7265625 152.734375 C-41.6760376 152.95915527 -42.6255127 153.18393555 -43.60375977 153.41552734 C-45.13021118 153.76671631 -45.13021118 153.76671631 -46.6875 154.125 C-56.7155912 156.59338152 -65.8753395 159.66769279 -75.0625 164.375 C-75.67416016 164.68695313 -76.28582031 164.99890625 -76.91601562 165.3203125 C-85.41059052 169.73354465 -92.95336891 174.93075167 -100.0625 181.375 C-100.54960449 181.81295898 -101.03670898 182.25091797 -101.53857422 182.70214844 C-115.91238387 195.78771752 -122.8745644 210.17958755 -131.0625 228.375 C-191.9475 228.87 -191.9475 228.87 -254.0625 229.375 C-254.0625 178.67679669 -219.63091605 120.94020654 -185.5 84.98828125 C-183.74710828 83.10897907 -182.10822667 81.24002267 -180.48828125 79.25390625 C-178.49898603 76.89301966 -176.61228302 74.9594516 -174.25 73 C-171.44154759 70.61071959 -168.8147438 68.14883376 -166.25 65.5 C-161.503985 60.71740685 -156.39317948 56.48693262 -151.0625 52.375 C-150.13099121 51.65352783 -150.13099121 51.65352783 -149.18066406 50.91748047 C-127.40518652 34.21943268 -103.30518595 21.75993418 -77.30102539 13.12646484 C-75.65691897 12.57454429 -74.01886498 12.00450909 -72.38452148 11.42431641 C-64.65172434 8.72890259 -56.8963985 6.87057116 -48.875 5.25 C-47.09512695 4.87294922 -47.09512695 4.87294922 -45.27929688 4.48828125 C-30.21787371 1.39668337 -15.35937659 -0.03984848 0 0 Z " fill="#F13832" transform="translate(381.0625,111.625)"/>
<path d="M0 0 C1.09481689 -0.01474365 2.18963379 -0.0294873 3.31762695 -0.04467773 C10.83664613 0.0521287 16.57304962 1.11535902 22.25 6.4375 C23.62983006 9.36963887 23.64296493 11.35328637 23.25 14.5625 C21.89279973 17.80470066 20.73375647 19.24486658 17.79296875 21.17578125 C13.03427808 23.03833383 8.75199513 23.00139904 3.6875 23.0625 C-21.21479935 23.84107901 -42.39659461 33.61241591 -59.75 51.5625 C-75.97977664 70.92963123 -80.29156509 95.99412434 -78.75 120.5625 C-76.94855049 140.13995486 -69.38201978 158.49604386 -56.75 173.5625 C-56.17894531 174.29082031 -55.60789062 175.01914062 -55.01953125 175.76953125 C-40.16118056 193.85933561 -16.9399129 202.15507388 5.6640625 204.97265625 C9.43817297 205.83351831 12.20100746 207.62202393 15.0625 210.1875 C16.92710852 213.91671704 16.91312341 217.48174055 16.25 221.5625 C14.09384859 225.18175415 12.08854294 226.95780525 8.25 228.5625 C-15.40300529 231.73489519 -42.11876579 221.33765891 -60.81542969 207.4987793 C-86.46344902 187.73502777 -102.3441713 160.90666464 -107.3359375 128.79296875 C-108.94054578 114.75519061 -108.58668324 100.17981894 -104.75 86.5625 C-104.45996094 85.52198486 -104.45996094 85.52198486 -104.1640625 84.46044922 C-95.25155523 53.2735507 -75.30882458 27.50183883 -46.9765625 11.56494141 C-32.18024939 3.55438189 -16.77386904 0.14996701 0 0 Z " fill="#0B1415" transform="translate(506.75,230.4375)"/>
<path d="M0 0 C-0.13277344 0.80179687 -0.26554687 1.60359375 -0.40234375 2.4296875 C-1.25245908 7.90269278 -2.05048544 13.18652969 -2.07421875 18.7265625 C-2.15712992 30.85758051 -2.15712992 30.85758051 -4.59375 34.16015625 C-6.625 35.5625 -6.625 35.5625 -8.8046875 36.7421875 C-16.38440108 41.08501272 -19.7468578 50.00497929 -22 58 C-24.82331805 70.59199848 -21.93475644 83.46179689 -15.08984375 94.30078125 C-10.13515406 100.70020289 -3.71290232 105.5260502 4 108 C5.13953125 108.03480469 6.2790625 108.06960938 7.453125 108.10546875 C11 109 11 109 13.22265625 112.2109375 C13.86185216 113.58721665 14.47394664 114.97631466 15.0625 116.375 C15.73403495 117.84059729 16.40722074 119.30543925 17.08203125 120.76953125 C17.56663818 121.85161865 17.56663818 121.85161865 18.06103516 122.95556641 C19.33448087 125.72827427 20.77241204 128.39390916 22.25 131.0625 C22.68828125 131.85785156 23.1265625 132.65320313 23.578125 133.47265625 C25.3698795 136.65745066 27.18365744 139.82916267 29 143 C7.09418608 143.90333253 -11.35622678 138.95832783 -28 124 C-28.59941406 123.49339844 -29.19882812 122.98679687 -29.81640625 122.46484375 C-39.86888276 113.34531169 -46.35549253 100.89244519 -50 88 C-50.36351562 86.80503906 -50.72703125 85.61007812 -51.1015625 84.37890625 C-55.56621598 66.03567132 -52.18958112 46.18343584 -42.9765625 30.03125 C-39.80415112 25.16604994 -36.11835962 21.07744876 -32 17 C-30.89398438 15.84371094 -30.89398438 15.84371094 -29.765625 14.6640625 C-24.49974281 9.48653403 -7.90694549 -3.95347275 0 0 Z " fill="#F8F4F1" transform="translate(333,306)"/>
<path d="M0 0 C1.69866211 -0.03673828 1.69866211 -0.03673828 3.43164062 -0.07421875 C11.24869376 -0.10153518 17.02273181 0.70490483 22.9375 6.25 C24.31733006 9.18213887 24.33046493 11.16578637 23.9375 14.375 C22.58029973 17.61720066 21.42125647 19.05736658 18.48046875 20.98828125 C13.72177808 22.85083383 9.43949513 22.81389904 4.375 22.875 C-20.64615583 23.6572951 -41.56410844 33.53708741 -59.0625 51.375 C-60.94249729 53.65223521 -62.50038372 55.86445597 -64.0625 58.375 C-65.0525 57.776875 -66.0425 57.17875 -67.0625 56.5625 C-72.73783231 53.31781507 -78.86453661 51.3893381 -85.0625 49.375 C-84.28926331 42.56315294 -79.43957915 38.32543456 -75.0625 33.375 C-74.44117188 32.66859375 -73.81984375 31.9621875 -73.1796875 31.234375 C-59.54655194 16.7159709 -41.10585853 7.35794777 -22.0625 2.375 C-21.39645752 2.18953613 -20.73041504 2.00407227 -20.04418945 1.81298828 C-13.38597868 0.1114371 -6.84536995 0.00781881 0 0 Z " fill="#F63C37" transform="translate(506.0625,230.625)"/>
<path d="M0 0 C4.84659077 0.59104765 8.60748167 1.97944157 13 4 C13 4.66 13 5.32 13 6 C13.86625 6.4021875 13.86625 6.4021875 14.75 6.8125 C17.0325868 8.01719859 18.9737942 9.40798115 21 11 C19.84826645 13.46800047 18.95216435 15.04783565 17 17 C16.113125 16.2575 15.22625 15.515 14.3125 14.75 C9.1482374 11.00484262 3.0843971 9.63775501 -3 8 C-2.45276317 4.62537285 -1.9451 2.91765 0 0 Z " fill="#BB2D28" transform="translate(424,272)"/>
<path d="M0 0 C4.19362703 1.41553837 7.0184515 3.4512588 10.375 6.3125 C14.4722657 9.74998949 18.59735124 12.96706419 23 16 C22.01 16.33 21.02 16.66 20 17 C18.03881836 15.87597656 18.03881836 15.87597656 15.83984375 14.140625 C14.6497168 13.20863281 14.6497168 13.20863281 13.43554688 12.2578125 C12.19901367 11.26394531 12.19901367 11.26394531 10.9375 10.25 C10.10927734 9.60289062 9.28105469 8.95578125 8.42773438 8.2890625 C2.28973035 3.43459552 2.28973035 3.43459552 0 0 Z " fill="#0A0D0C" transform="translate(214,571)"/>
<path d="M0 0 C4.45802053 3.66548355 8.68589512 7.52824632 12.8125 11.5625 C14.21435547 12.92568359 14.21435547 12.92568359 15.64453125 14.31640625 C17.88721514 16.87150382 18.99468316 18.78647277 20 22 C16.04985136 19.12716463 13.05402374 15.85732088 9.9140625 12.1640625 C7.26470321 9.16866444 4.39816046 6.42101812 1.50390625 3.6640625 C0 2 0 2 0 0 Z " fill="#060707" transform="translate(614,231)"/>
<path d="M0 0 C0.66 0.33 1.32 0.66 2 1 C0.60784291 3.04425682 -0.78858367 5.08537555 -2.1875 7.125 C-2.57486328 7.69476563 -2.96222656 8.26453125 -3.36132812 8.8515625 C-6.04656375 12.75735977 -8.91822713 16.39821217 -12 20 C-12.66 19.34 -13.32 18.68 -14 18 C-13.49210938 17.45472656 -12.98421875 16.90945313 -12.4609375 16.34765625 C-7.7538229 11.19098576 -3.69607775 5.92212458 0 0 Z " fill="#ECEBEA" transform="translate(639,419)"/>
<path d="M0 0 C3.16115776 1.36983503 3.9927092 1.9890638 6 5 C6.32727273 10.34545455 6.32727273 10.34545455 5 13 C4.01 13 3.02 13 2 13 C2.33 10.03 2.66 7.06 3 4 C2.01 3.67 1.02 3.34 0 3 C0 2.01 0 1.02 0 0 Z " fill="#FC766E" transform="translate(524,234)"/>
<path d="M0 0 C0.99 0 1.98 0 3 0 C3 3 3 3 0.8125 5.25 C-0.5796875 6.61125 -0.5796875 6.61125 -2 8 C-3.75504767 10.28156197 -5.37016144 12.62509238 -7 15 C-7.66 14.67 -8.32 14.34 -9 14 C-7.57512189 11.65806198 -6.13630077 9.32706604 -4.6875 7 C-4.28337891 6.33226562 -3.87925781 5.66453125 -3.46289062 4.9765625 C-2.3886562 3.26477431 -1.20058724 1.62566562 0 0 Z " fill="#090C0D" transform="translate(643,415)"/>
<path d="M0 0 C3.68881485 3.53156519 6.77382244 7.18534092 9.8125 11.3125 C10.21919922 11.86228516 10.62589844 12.41207031 11.04492188 12.97851562 C12.03368611 14.31625547 13.01738585 15.65773623 14 17 C13.34 17.66 12.68 18.32 12 19 C11.59007812 18.44570313 11.18015625 17.89140625 10.7578125 17.3203125 C10.21898437 16.59585937 9.68015625 15.87140625 9.125 15.125 C8.32449219 14.04605469 8.32449219 14.04605469 7.5078125 12.9453125 C6.00126838 10.91747368 6.00126838 10.91747368 4 9 C0 2.81021898 0 2.81021898 0 0 Z " fill="#0B0D0D" transform="translate(390,420)"/>
<path d="M0 0 C0.33 0.99 0.66 1.98 1 3 C2.31267956 4.72943475 2.31267956 4.72943475 4 6 C4.99 6 5.98 6 7 6 C6.67 6.99 6.34 7.98 6 9 C1.545 8.01 1.545 8.01 -3 7 C-2.25 2.25 -2.25 2.25 0 0 Z " fill="#A32723" transform="translate(424,273)"/>
<path d="M0 0 C5.39882424 4.59474404 10.71333087 9.27676273 16 14 C15.34 14.66 14.68 15.32 14 16 C11.65861457 13.71643754 9.32833018 11.42186626 7 9.125 C5.99839844 8.14853516 5.99839844 8.14853516 4.9765625 7.15234375 C4.34492188 6.52714844 3.71328125 5.90195312 3.0625 5.2578125 C2.47597656 4.6817627 1.88945312 4.10571289 1.28515625 3.51220703 C0 2 0 2 0 0 Z " fill="#070809" transform="translate(406,441)"/>
<path d="M0 0 C3.98615034 1.54713598 5.98472065 4.08127359 8.625 7.375 C9.40101563 8.33148438 10.17703125 9.28796875 10.9765625 10.2734375 C12.62137448 12.48980577 13.8929156 14.48822788 15 17 C9.09648558 12.32638442 4.42257009 7.09970057 0 1 C0 0.67 0 0.34 0 0 Z " fill="#060808" transform="translate(442,397)"/>
<path d="M0 0 C0 2 0 2 -1.609375 3.62109375 C-2.66898437 4.52021484 -2.66898437 4.52021484 -3.75 5.4375 C-4.44609375 6.03433594 -5.1421875 6.63117188 -5.859375 7.24609375 C-7.86673589 8.89081098 -9.91070312 10.46126108 -12 12 C-12 9 -12 9 -10.13671875 6.73828125 C-9.32847656 5.93777344 -8.52023437 5.13726562 -7.6875 4.3125 C-6.88699219 3.50425781 -6.08648437 2.69601563 -5.26171875 1.86328125 C-3 0 -3 0 0 0 Z " fill="#FCFBF9" transform="translate(418,234)"/>
<path d="M0 0 C1.53617528 1.21958646 2.9829676 2.54955859 4.41796875 3.88671875 C4.41796875 4.54671875 4.41796875 5.20671875 4.41796875 5.88671875 C0.67603327 4.2092994 0.67603327 4.2092994 -0.83203125 2.32421875 C-3.71456084 -0.04357341 -6.92358131 0.1865917 -10.58203125 -0.11328125 C-10.58203125 -0.44328125 -10.58203125 -0.77328125 -10.58203125 -1.11328125 C-6.35444691 -2.17017733 -3.66569521 -2.5795633 0 0 Z " fill="#E3E3E2" transform="translate(392.58203125,482.11328125)"/>
<path d="M0 0 C0.66 0.33 1.32 0.66 2 1 C-4.435 6.94 -4.435 6.94 -11 13 C-11 10 -11 10 -9.35546875 8.02734375 C-8.64003906 7.33769531 -7.92460937 6.64804687 -7.1875 5.9375 C-6.47980469 5.24527344 -5.77210938 4.55304688 -5.04296875 3.83984375 C-3 2 -3 2 0 0 Z " fill="#F51916" transform="translate(442,254)"/>
<path d="M0 0 C0.66 0.66 1.32 1.32 2 2 C0.37744772 3.48185125 -1.24811888 4.96040256 -2.875 6.4375 C-4.23238281 7.67306641 -4.23238281 7.67306641 -5.6171875 8.93359375 C-8 11 -8 11 -10 12 C-8.52278578 8.54798361 -6.56205999 6.35038064 -3.875 3.75 C-3.15054687 3.04359375 -2.42609375 2.3371875 -1.6796875 1.609375 C-1.12539063 1.07828125 -0.57109375 0.5471875 0 0 Z " fill="#FDFDFC" transform="translate(306,318)"/>
<path d="M0 0 C1.45922693 0.11409593 2.91740598 0.24165544 4.375 0.375 C5.59316406 0.47941406 5.59316406 0.47941406 6.8359375 0.5859375 C9 1 9 1 11 3 C10.34 3 9.68 3 9 3 C8.67 3.66 8.34 4.32 8 5 C8 4.01 8 3.02 8 2 C5.69 2.66 3.38 3.32 1 4 C0.67 2.68 0.34 1.36 0 0 Z " fill="#FB6B65" transform="translate(513,231)"/>
<path d="M0 0 C2.31 0 4.62 0 7 0 C7 0.66 7 1.32 7 2 C7.99 2.33 8.98 2.66 10 3 C6.7 3 3.4 3 0 3 C0 2.01 0 1.02 0 0 Z " fill="#151B1C" transform="translate(505,456)"/>
<path d="M0 0 C0.33 0 0.66 0 1 0 C1 3.63 1 7.26 1 11 C0.01 10.67 -0.98 10.34 -2 10 C-2.25 3.375 -2.25 3.375 0 0 Z " fill="#F24D46" transform="translate(3,620)"/>
<path d="M0 0 C0.99 0.33 1.98 0.66 3 1 C-1.455 4.465 -1.455 4.465 -6 8 C-6 7.01 -6 6.02 -6 5 C-3.1875 2.25 -3.1875 2.25 0 0 Z " fill="#EEEEED" transform="translate(605,456)"/>
<path d="M0 0 C0.66 0.99 1.32 1.98 2 3 C-0.375 4.5625 -0.375 4.5625 -3 6 C-3.66 5.67 -4.32 5.34 -5 5 C-3.35 3.35 -1.7 1.7 0 0 Z " fill="#171C1C" transform="translate(622,443)"/>
<path d="M0 0 C-1.66751148 3.94139078 -4.22710649 6.7892812 -7 10 C-7.33 9.01 -7.66 8.02 -8 7 C-6.85546875 5.17578125 -6.85546875 5.17578125 -5.1875 3.3125 C-4.37345703 2.37857422 -4.37345703 2.37857422 -3.54296875 1.42578125 C-2 0 -2 0 0 0 Z " fill="#07090A" transform="translate(631,435)"/>
<path d="M0 0 C3.34726719 1.11575573 3.62079748 1.51344622 5.25 4.4375 C5.8275 5.613125 6.405 6.78875 7 8 C6.67 8.66 6.34 9.32 6 10 C4.99723227 8.52270825 3.99785546 7.04311423 3 5.5625 C2.443125 4.73878906 1.88625 3.91507812 1.3125 3.06640625 C0 1 0 1 0 0 Z " fill="#FBFCFB" transform="translate(289,408)"/>
<path d="M0 0 C0.66 0 1.32 0 2 0 C2.66 1.98 3.32 3.96 4 6 C1.69 5.34 -0.62 4.68 -3 4 C-1.625 2 -1.625 2 0 0 Z " fill="#EF221D" transform="translate(428,268)"/>
<path d="M0 0 C1.890625 0.24609375 1.890625 0.24609375 4 1 C5.046875 2.84765625 5.046875 2.84765625 5.75 5.0625 C5.99234375 5.79597656 6.2346875 6.52945312 6.484375 7.28515625 C6.65453125 7.85105469 6.8246875 8.41695313 7 9 C4 8 4 8 2.375 5.0625 C1.92125 4.051875 1.4675 3.04125 1 2 C0.67 1.34 0.34 0.68 0 0 Z " fill="#E2E3E2" transform="translate(341,415)"/>
<path d="M0 0 C0.66 0 1.32 0 2 0 C0.60667426 3.36720387 -0.9789286 4.9859524 -4 7 C-4.33 5.68 -4.66 4.36 -5 3 C-3.35 2.67 -1.7 2.34 0 2 C0 1.34 0 0.68 0 0 Z " fill="#E13731" transform="translate(278,292)"/>
<path d="M0 0 C2.12508244 3.18762365 2.5020163 5.26512223 3 9 C2.34 9 1.68 9 1 9 C1 8.01 1 7.02 1 6 C0.34 6 -0.32 6 -1 6 C-0.67 4.02 -0.34 2.04 0 0 Z " fill="#F2453F" transform="translate(805,108)"/>
<path d="M0 0 C2 0 2 0 4.625 2.3125 C7 5 7 5 7 8 C5.8274869 7.04882866 4.66212985 6.08882991 3.5 5.125 C2.8503125 4.59132813 2.200625 4.05765625 1.53125 3.5078125 C1.0259375 3.01023437 0.520625 2.51265625 0 2 C0 1.34 0 0.68 0 0 Z " fill="#F42E2A" transform="translate(46,740)"/>
<path d="M0 0 C2.31 1.98 4.62 3.96 7 6 C6.67 6.66 6.34 7.32 6 8 C2.24623848 6.74874616 1.75926711 5.4347596 0 2 C0 1.34 0 0.68 0 0 Z " fill="#FB3C35" transform="translate(685,677)"/>
<path d="M0 0 C3.3 0.33 6.6 0.66 10 1 C6.00889681 2.9955516 4.30013434 3.19546065 0 3 C0 2.01 0 1.02 0 0 Z " fill="#1C191A" transform="translate(416,81)"/>
</svg>
